<svg width="50" height="50" viewBox="0 0 50 50" fill="none" xmlns="http://www.w3.org/2000/svg">
<g clip-path="url(#clip0_4_44)">
<path d="M24.624 20.222C23.748 20.222 22.392 19.226 20.964 19.262C19.08 19.286 17.352 20.354 16.38 22.046C14.424 25.442 15.876 30.458 17.784 33.218C18.72 34.562 19.824 36.074 21.288 36.026C22.692 35.966 23.22 35.114 24.924 35.114C26.616 35.114 27.096 36.026 28.584 35.99C30.096 35.966 31.056 34.622 31.98 33.266C33.048 31.706 33.492 30.194 33.516 30.11C33.48 30.098 30.576 28.982 30.54 25.622C30.516 22.814 32.832 21.47 32.94 21.41C31.62 19.478 29.592 19.262 28.884 19.214C27.036 19.07 25.488 20.222 24.624 20.222ZM27.744 17.39C28.524 16.454 29.04 15.146 28.896 13.85C27.78 13.898 26.436 14.594 25.632 15.53C24.912 16.358 24.288 17.69 24.456 18.962C25.692 19.058 26.964 18.326 27.744 17.39Z" fill="white"/>
</g>
<rect x="0.5" y="0.5" width="49" height="49" rx="24.5" stroke="white"/>
<defs>
<clipPath id="clip0_4_44">
<rect width="24" height="24" fill="white" transform="translate(13 13)"/>
</clipPath>
</defs>
</svg>
