<svg width="30" height="20" viewBox="0 0 30 20" fill="none" xmlns="http://www.w3.org/2000/svg">
<path d="M27.772 9.2435L27.7721 9.24347L27.771 9.24251L27.77 9.2415L22.4632 4.20924C22.0269 3.79556 21.3231 3.79708 20.8888 4.21286C20.4519 4.6312 20.4536 5.30991 20.8926 5.72623L20.9614 5.65367L20.8926 5.72624L24.2736 8.93226H3.01562C2.40407 8.93226 1.9 9.40579 1.9 10C1.9 10.5942 2.40407 11.0677 3.01562 11.0677H24.2736L20.8926 14.2738C20.4536 14.6901 20.4519 15.3688 20.8889 15.7871C21.3232 16.203 22.027 16.2044 22.4632 15.7908L27.7701 10.7585L27.7701 10.7585L27.7721 10.7565C27.7721 10.7565 27.7721 10.7565 27.7721 10.7565C28.21 10.339 28.2086 9.65964 27.772 9.2435Z" fill="white" stroke="white" stroke-width="0.2"/>
</svg>
