<svg width="19" height="16" viewBox="0 0 19 16" fill="none" xmlns="http://www.w3.org/2000/svg">
<path d="M9.5 16C7.36312 16 5.35413 15.1679 3.84313 13.6569C2.33213 12.1459 1.5 10.1369 1.5 8C1.5 5.86312 2.33216 3.85416 3.84313 2.34313C5.35409 0.832094 7.36312 0 9.5 0C11.6369 0 13.6459 0.832125 15.1569 2.34313C16.6679 3.85413 17.5 5.86312 17.5 8C17.5 10.1369 16.6678 12.1458 15.1569 13.6569C13.6459 15.1679 11.6369 16 9.5 16ZM9.5 1C5.64019 1 2.5 4.14019 2.5 8C2.5 11.8598 5.64019 15 9.5 15C13.3598 15 16.5 11.8598 16.5 8C16.5 4.14019 13.3598 1 9.5 1Z" fill="#DFE1E6"/>
<path d="M9.5 7.5C8.81075 7.5 8.25 6.93925 8.25 6.25C8.25 5.56075 8.81075 5 9.5 5C10.1892 5 10.75 5.56075 10.75 6.25C10.75 6.52612 10.9738 6.75 11.25 6.75C11.5262 6.75 11.75 6.52612 11.75 6.25C11.75 5.18122 11.0007 4.28475 10 4.05669V3.5C10 3.22387 9.77616 3 9.5 3C9.22384 3 9 3.22387 9 3.5V4.05669C7.99931 4.28475 7.25 5.18122 7.25 6.25C7.25 7.49066 8.25934 8.5 9.5 8.5C10.1892 8.5 10.75 9.06075 10.75 9.75C10.75 10.4392 10.1892 11 9.5 11C8.81075 11 8.25 10.4392 8.25 9.75C8.25 9.47388 8.02616 9.25 7.75 9.25C7.47384 9.25 7.25 9.47388 7.25 9.75C7.25 10.8188 7.99931 11.7153 9 11.9433V12.5C9 12.7761 9.22384 13 9.5 13C9.77616 13 10 12.7761 10 12.5V11.9433C11.0007 11.7153 11.75 10.8188 11.75 9.75C11.75 8.50934 10.7407 7.5 9.5 7.5Z" fill="#DFE1E6"/>
</svg>
