<svg width="16" height="16" viewBox="0 0 16 16" fill="none" xmlns="http://www.w3.org/2000/svg">
<path d="M0.799201 8.53331C0.90427 8.53348 1.00834 8.51291 1.10544 8.47278C1.20255 8.43265 1.29077 8.37375 1.36507 8.29945L2.66587 7.00105L3.32267 7.65838C3.44649 7.78231 3.59353 7.88062 3.75537 7.9477C3.91721 8.01477 4.09068 8.0493 4.26587 8.0493C4.44106 8.0493 4.61453 8.01477 4.77637 7.9477C4.93821 7.88062 5.08524 7.78231 5.20907 7.65838L9.1216 3.74451L10.3115 4.93492C10.5618 5.18483 10.9011 5.32519 11.2548 5.32519C11.6085 5.32519 11.9478 5.18483 12.1981 4.93492L14.58 2.54985L14.7779 2.74771C14.8642 2.83392 14.9734 2.89356 15.0925 2.91957C15.2117 2.94558 15.3358 2.93686 15.4502 2.89444C15.5646 2.85202 15.6644 2.77769 15.7378 2.68027C15.8112 2.58284 15.8551 2.46641 15.8643 2.34478L15.9976 0.627181V0.624515C16.0033 0.541282 15.9911 0.457792 15.9619 0.37966C15.9326 0.301528 15.887 0.230567 15.828 0.171549C15.7691 0.112531 15.6981 0.0668262 15.62 0.0375085C15.5419 0.00819084 15.4584 -0.00405962 15.3752 0.00158125L13.656 0.134915C13.5344 0.14361 13.4179 0.187086 13.3204 0.26016C13.2228 0.333233 13.1483 0.432821 13.1058 0.547049C13.0633 0.661277 13.0545 0.785325 13.0805 0.904403C13.1065 1.02348 13.1662 1.13257 13.2525 1.21865L13.4504 1.41705L11.2544 3.61411L10.0648 2.42371C9.94097 2.29979 9.79394 2.20147 9.6321 2.1344C9.47026 2.06732 9.29679 2.0328 9.1216 2.0328C8.94641 2.0328 8.77294 2.06732 8.6111 2.1344C8.44926 2.20147 8.30223 2.29979 8.1784 2.42371L4.26587 6.33785L3.6096 5.67998C3.3593 5.43 3.02002 5.2896 2.66627 5.2896C2.31252 5.2896 1.97323 5.43 1.72293 5.67998L0.236267 7.17065C0.124544 7.28212 0.0483925 7.42423 0.0174439 7.57899C-0.0135046 7.73375 0.00214051 7.89422 0.0624005 8.04008C0.12266 8.18595 0.224828 8.31067 0.35598 8.39847C0.487131 8.48627 0.641375 8.53319 0.799201 8.53331ZM0.612534 7.54665L2.10027 6.05571C2.17457 5.98133 2.2628 5.92233 2.35992 5.88207C2.45703 5.84181 2.56113 5.82109 2.66627 5.82109C2.7714 5.82109 2.8755 5.84181 2.97262 5.88207C3.06974 5.92233 3.15797 5.98133 3.23227 6.05571L4.07733 6.90131C4.1021 6.92611 4.13151 6.94578 4.16388 6.9592C4.19626 6.97262 4.23096 6.97952 4.266 6.97952C4.30104 6.97952 4.33575 6.97262 4.36812 6.9592C4.40049 6.94578 4.4299 6.92611 4.45467 6.90131L8.55547 2.79998C8.70794 2.65429 8.91071 2.57298 9.1216 2.57298C9.33249 2.57298 9.53526 2.65429 9.68773 2.79998L10.8776 3.99038C10.9792 4.08742 11.1143 4.14157 11.2548 4.14157C11.3953 4.14157 11.5304 4.08742 11.632 3.99038L14.0163 1.60478C14.0662 1.55478 14.0942 1.48703 14.0942 1.41638C14.0942 1.34574 14.0662 1.27798 14.0163 1.22798L13.6288 0.840515C13.6145 0.827239 13.6046 0.809896 13.6005 0.790824C13.5963 0.771752 13.5981 0.751867 13.6056 0.733848C13.6122 0.71469 13.6244 0.697955 13.6406 0.685826C13.6568 0.673697 13.6763 0.666735 13.6965 0.665848L15.4147 0.533315C15.428 0.532781 15.4413 0.537848 15.4504 0.547715C15.4611 0.557848 15.4664 0.571981 15.4659 0.586648L15.3325 2.30398C15.3311 2.3239 15.324 2.34299 15.312 2.35898C15.3001 2.37498 15.2838 2.3872 15.265 2.39419C15.2463 2.40118 15.226 2.40266 15.2065 2.39844C15.187 2.39422 15.1691 2.38448 15.1549 2.37038L14.7685 1.98345C14.7175 1.93525 14.65 1.9084 14.5799 1.9084C14.5097 1.9084 14.4422 1.93525 14.3912 1.98345L11.8208 4.55758C11.6682 4.70289 11.4655 4.78394 11.2548 4.78394C11.0441 4.78394 10.8414 4.70289 10.6888 4.55758L9.49893 3.36718C9.44952 3.31743 9.39072 3.27798 9.32595 3.25111C9.26118 3.22424 9.19172 3.21049 9.1216 3.21065C8.98027 3.21065 8.84453 3.26665 8.7448 3.36691L4.83227 7.28131C4.67976 7.42695 4.477 7.50821 4.26613 7.50821C4.05526 7.50821 3.8525 7.42695 3.7 7.28131L3.0432 6.62398C2.9432 6.52408 2.80762 6.46796 2.66627 6.46796C2.52491 6.46796 2.38934 6.52408 2.28933 6.62398L0.987201 7.92398C0.936969 7.97314 0.869482 8.00066 0.799201 8.00066C0.728919 8.00066 0.661433 7.97314 0.611201 7.92398C0.586235 7.89972 0.566389 7.87071 0.552837 7.83864C0.539284 7.80658 0.532302 7.77212 0.532302 7.73731C0.532302 7.70251 0.539284 7.66805 0.552837 7.63599C0.566389 7.60392 0.586235 7.57491 0.611201 7.55065L0.612534 7.54665ZM10.6659 10.1333C10.6667 9.6782 10.5511 9.23044 10.3299 8.83266C10.1088 8.43488 9.78956 8.10031 9.40256 7.8608C9.01557 7.6213 8.57372 7.48482 8.11906 7.46436C7.66441 7.44391 7.21208 7.54015 6.80514 7.74394C6.3982 7.94773 6.05019 8.25228 5.79424 8.6286C5.53828 9.00491 5.38289 9.44048 5.34287 9.89383C5.30285 10.3472 5.37952 10.8032 5.56559 11.2186C5.75165 11.6339 6.04093 11.9947 6.40587 12.2666H6.3992C6.24447 12.266 6.0929 12.3104 5.96299 12.3944C5.83308 12.4785 5.73046 12.5985 5.66767 12.7399C5.60489 12.8814 5.58464 13.038 5.60942 13.1907C5.6342 13.3435 5.70293 13.4857 5.8072 13.6C5.67343 13.7454 5.59919 13.9357 5.59919 14.1333C5.59919 14.3309 5.67343 14.5212 5.8072 14.6666C5.70293 14.781 5.6342 14.9232 5.60942 15.0759C5.58464 15.2286 5.60489 15.3853 5.66767 15.5267C5.73046 15.6681 5.83308 15.7882 5.96299 15.8722C6.0929 15.9563 6.24447 16.0007 6.3992 16H9.5992C9.75393 16.0007 9.9055 15.9563 10.0354 15.8722C10.1653 15.7882 10.2679 15.6681 10.3307 15.5267C10.3935 15.3853 10.4138 15.2286 10.389 15.0759C10.3642 14.9232 10.2955 14.781 10.1912 14.6666C10.325 14.5212 10.3992 14.3309 10.3992 14.1333C10.3992 13.9357 10.325 13.7454 10.1912 13.6C10.2955 13.4857 10.3642 13.3435 10.389 13.1907C10.4138 13.038 10.3935 12.8814 10.3307 12.7399C10.2679 12.5985 10.1653 12.4785 10.0354 12.3944C9.9055 12.3104 9.75393 12.266 9.5992 12.2666H9.59253C9.92523 12.0192 10.1955 11.6975 10.3819 11.3271C10.5682 10.9567 10.6655 10.5479 10.6659 10.1333ZM9.86587 14.1333C9.86587 14.204 9.83777 14.2719 9.78776 14.3219C9.73775 14.3719 9.66993 14.4 9.5992 14.4H6.3992C6.32848 14.4 6.26065 14.3719 6.21064 14.3219C6.16063 14.2719 6.13253 14.204 6.13253 14.1333C6.13253 14.0626 6.16063 13.9948 6.21064 13.9448C6.26065 13.8947 6.32848 13.8666 6.3992 13.8666H9.5992C9.66993 13.8666 9.73775 13.8947 9.78776 13.9448C9.83777 13.9948 9.86587 14.0626 9.86587 14.1333ZM9.5992 15.4666H6.3992C6.32848 15.4666 6.26065 15.4386 6.21064 15.3885C6.16063 15.3385 6.13253 15.2707 6.13253 15.2C6.13253 15.1293 6.16063 15.0614 6.21064 15.0114C6.26065 14.9614 6.32848 14.9333 6.3992 14.9333H9.5992C9.66993 14.9333 9.73775 14.9614 9.78776 15.0114C9.83777 15.0614 9.86587 15.1293 9.86587 15.2C9.86587 15.2707 9.83777 15.3385 9.78776 15.3885C9.73775 15.4386 9.66993 15.4666 9.5992 15.4666ZM9.5992 12.8C9.66993 12.8 9.73775 12.8281 9.78776 12.8781C9.83777 12.9281 9.86587 12.9959 9.86587 13.0666C9.86587 13.1374 9.83777 13.2052 9.78776 13.2552C9.73775 13.3052 9.66993 13.3333 9.5992 13.3333H6.3992C6.32848 13.3333 6.26065 13.3052 6.21064 13.2552C6.16063 13.2052 6.13253 13.1374 6.13253 13.0666C6.13253 12.9959 6.16063 12.9281 6.21064 12.8781C6.26065 12.8281 6.32848 12.8 6.3992 12.8H9.5992ZM5.86587 10.1333C5.86587 9.71138 5.99099 9.29892 6.2254 8.9481C6.45981 8.59727 6.79299 8.32384 7.18281 8.16237C7.57263 8.00091 8.00157 7.95866 8.41539 8.04097C8.82922 8.12329 9.20934 8.32647 9.5077 8.62482C9.80605 8.92317 10.0092 9.3033 10.0915 9.71712C10.1739 10.1309 10.1316 10.5599 9.97014 10.9497C9.80868 11.3395 9.53524 11.6727 9.18442 11.9071C8.83359 12.1415 8.42113 12.2666 7.9992 12.2666C7.4336 12.266 6.89135 12.041 6.49141 11.6411C6.09147 11.2412 5.8665 10.6989 5.86587 10.1333Z" fill="#DFE1E6"/>
<path fill-rule="evenodd" clip-rule="evenodd" d="M8.00082 9.86678C7.95402 9.86674 7.90806 9.85437 7.86755 9.83094C7.82704 9.80751 7.79341 9.77382 7.77004 9.73328C7.74667 9.69273 7.73438 9.64675 7.73441 9.59995C7.73444 9.55315 7.74678 9.50719 7.7702 9.46667C7.79362 9.42615 7.82729 9.39251 7.86783 9.36913C7.90837 9.34574 7.95435 9.33344 8.00114 9.33345C8.04794 9.33346 8.09391 9.34579 8.13444 9.36919C8.17497 9.39259 8.20862 9.42625 8.23202 9.46678C8.24894 9.49821 8.27199 9.52593 8.29982 9.54829C8.32764 9.57065 8.35968 9.58719 8.39401 9.59694C8.42835 9.60669 8.4643 9.60945 8.49972 9.60504C8.53515 9.60064 8.56933 9.58917 8.60024 9.57132C8.63115 9.55346 8.65816 9.52958 8.67966 9.50109C8.70117 9.4726 8.71674 9.44009 8.72545 9.40547C8.73416 9.37085 8.73583 9.33484 8.73036 9.29956C8.72489 9.26429 8.7124 9.23047 8.69362 9.20011C8.59694 9.03788 8.446 8.91508 8.26749 8.85345V8.80011C8.26749 8.72939 8.23939 8.66156 8.18938 8.61155C8.13937 8.56154 8.07154 8.53345 8.00082 8.53345C7.93009 8.53345 7.86227 8.56154 7.81226 8.61155C7.76225 8.66156 7.73415 8.72939 7.73415 8.80011V8.84918C7.55637 8.9118 7.40649 9.03532 7.31105 9.19786C7.21561 9.3604 7.18078 9.55147 7.21272 9.73723C7.24466 9.92299 7.34131 10.0915 7.48555 10.2128C7.6298 10.3341 7.81233 10.4005 8.00082 10.4001C8.04762 10.4002 8.09358 10.4125 8.13409 10.436C8.1746 10.4594 8.20823 10.4931 8.2316 10.5336C8.25497 10.5742 8.26725 10.6201 8.26723 10.6669C8.2672 10.7137 8.25485 10.7597 8.23143 10.8002C8.20802 10.8407 8.17435 10.8744 8.13381 10.8978C8.09327 10.9212 8.04729 10.9335 8.00049 10.9334C7.9537 10.9334 7.90772 10.9211 7.8672 10.8977C7.82667 10.8743 7.79302 10.8406 7.76962 10.8001C7.73314 10.7412 7.67514 10.6987 7.6079 10.6818C7.54066 10.6649 7.46948 10.6748 7.40945 10.7095C7.34941 10.7442 7.30525 10.8009 7.28631 10.8676C7.26738 10.9343 7.27516 11.0057 7.30802 11.0668C7.40483 11.2291 7.55598 11.3519 7.73469 11.4134V11.4668C7.73469 11.5375 7.76278 11.6053 7.81279 11.6553C7.8628 11.7054 7.93063 11.7334 8.00135 11.7334C8.07208 11.7334 8.1399 11.7054 8.18991 11.6553C8.23992 11.6053 8.26802 11.5375 8.26802 11.4668V11.4177C8.44585 11.3551 8.59576 11.2315 8.69119 11.0689C8.78663 10.9063 8.82142 10.7152 8.78941 10.5294C8.7574 10.3436 8.66066 10.1751 8.51631 10.0539C8.37197 9.93257 8.18935 9.8663 8.00082 9.86678Z" fill="#DFE1E6"/>
<path d="M13.3324 5.33325C12.7724 5.33263 12.2263 5.50859 11.772 5.83611C11.3176 6.16363 10.9781 6.62605 10.8016 7.15762C10.6252 7.68919 10.6208 8.26285 10.7891 8.79706C10.9574 9.33127 11.2898 9.79882 11.7391 10.1333H11.7324C11.5777 10.1326 11.4261 10.177 11.2962 10.261C11.1663 10.3451 11.0637 10.4651 11.0009 10.6065C10.9381 10.748 10.9179 10.9046 10.9427 11.0573C10.9674 11.2101 11.0362 11.3523 11.1404 11.4666C11.0067 11.612 10.9324 11.8023 10.9324 11.9999C10.9324 12.1975 11.0067 12.3879 11.1404 12.5333C11.0067 12.6787 10.9324 12.869 10.9324 13.0666C10.9324 13.2642 11.0067 13.4545 11.1404 13.5999C11.0067 13.7453 10.9324 13.9357 10.9324 14.1333C10.9324 14.3308 11.0067 14.5212 11.1404 14.6666C11.0362 14.7809 10.9674 14.9231 10.9427 15.0758C10.9179 15.2286 10.9381 15.3852 11.0009 15.5266C11.0637 15.668 11.1663 15.7881 11.2962 15.8722C11.4261 15.9562 11.5777 16.0006 11.7324 15.9999H14.9324C15.0872 16.0006 15.2388 15.9562 15.3687 15.8722C15.4986 15.7881 15.6012 15.668 15.664 15.5266C15.7268 15.3852 15.747 15.2286 15.7222 15.0758C15.6974 14.9231 15.6287 14.7809 15.5244 14.6666C15.6582 14.5212 15.7325 14.3308 15.7325 14.1333C15.7325 13.9357 15.6582 13.7453 15.5244 13.5999C15.6582 13.4545 15.7325 13.2642 15.7325 13.0666C15.7325 12.869 15.6582 12.6787 15.5244 12.5333C15.6582 12.3879 15.7325 12.1975 15.7325 11.9999C15.7325 11.8023 15.6582 11.612 15.5244 11.4666C15.6287 11.3523 15.6974 11.2101 15.7222 11.0573C15.747 10.9046 15.7268 10.748 15.664 10.6065C15.6012 10.4651 15.4986 10.3451 15.3687 10.261C15.2388 10.177 15.0872 10.1326 14.9324 10.1333H14.9255C15.3749 9.79892 15.7075 9.33139 15.8759 8.79716C16.0443 8.26293 16.04 7.6892 15.8636 7.15756C15.6871 6.62593 15.3476 6.16346 14.8931 5.83594C14.4387 5.50842 13.8926 5.33252 13.3324 5.33325ZM15.1991 11.9999C15.1991 12.0706 15.171 12.1385 15.121 12.1885C15.071 12.2385 15.0032 12.2666 14.9324 12.2666H11.7324C11.6617 12.2666 11.5939 12.2385 11.5439 12.1885C11.4939 12.1385 11.4658 12.0706 11.4658 11.9999C11.4658 11.9292 11.4939 11.8614 11.5439 11.8114C11.5939 11.7613 11.6617 11.7333 11.7324 11.7333H14.9324C15.0032 11.7333 15.071 11.7613 15.121 11.8114C15.171 11.8614 15.1991 11.9292 15.1991 11.9999ZM15.1991 13.0666C15.1991 13.1373 15.171 13.2051 15.121 13.2552C15.071 13.3052 15.0032 13.3333 14.9324 13.3333H11.7324C11.6617 13.3333 11.5939 13.3052 11.5439 13.2552C11.4939 13.2051 11.4658 13.1373 11.4658 13.0666C11.4658 12.9959 11.4939 12.928 11.5439 12.878C11.5939 12.828 11.6617 12.7999 11.7324 12.7999H14.9324C15.0032 12.7999 15.071 12.828 15.121 12.878C15.171 12.928 15.1991 12.9959 15.1991 13.0666ZM15.1991 14.1333C15.1991 14.204 15.171 14.2718 15.121 14.3218C15.071 14.3718 15.0032 14.3999 14.9324 14.3999H11.7324C11.6617 14.3999 11.5939 14.3718 11.5439 14.3218C11.4939 14.2718 11.4658 14.204 11.4658 14.1333C11.4658 14.0625 11.4939 13.9947 11.5439 13.9447C11.5939 13.8947 11.6617 13.8666 11.7324 13.8666H14.9324C15.0032 13.8666 15.071 13.8947 15.121 13.9447C15.171 13.9947 15.1991 14.0625 15.1991 14.1333ZM14.9324 15.4666H11.7324C11.6617 15.4666 11.5939 15.4385 11.5439 15.3885C11.4939 15.3385 11.4658 15.2706 11.4658 15.1999C11.4658 15.1292 11.4939 15.0614 11.5439 15.0114C11.5939 14.9613 11.6617 14.9333 11.7324 14.9333H14.9324C15.0032 14.9333 15.071 14.9613 15.121 15.0114C15.171 15.0614 15.1991 15.1292 15.1991 15.1999C15.1991 15.2706 15.171 15.3385 15.121 15.3885C15.071 15.4385 15.0032 15.4666 14.9324 15.4666ZM14.9324 10.6666C15.0032 10.6666 15.071 10.6947 15.121 10.7447C15.171 10.7947 15.1991 10.8625 15.1991 10.9333C15.1991 11.004 15.171 11.0718 15.121 11.1218C15.071 11.1718 15.0032 11.1999 14.9324 11.1999H11.7324C11.6617 11.1999 11.5939 11.1718 11.5439 11.1218C11.4939 11.0718 11.4658 11.004 11.4658 10.9333C11.4658 10.8625 11.4939 10.7947 11.5439 10.7447C11.5939 10.6947 11.6617 10.6666 11.7324 10.6666H14.9324ZM13.3324 10.1333C12.9105 10.1333 12.4981 10.0081 12.1472 9.77372C11.7964 9.53931 11.523 9.20613 11.3615 8.81631C11.2 8.4265 11.1578 7.99755 11.2401 7.58373C11.3224 7.1699 11.5256 6.78978 11.824 6.49143C12.1223 6.19307 12.5024 5.98989 12.9163 5.90758C13.3301 5.82526 13.759 5.86751 14.1488 6.02898C14.5387 6.19044 14.8718 6.46388 15.1062 6.8147C15.3407 7.16553 15.4658 7.57799 15.4658 7.99992C15.4651 8.56552 15.2402 9.10777 14.8402 9.50771C14.4403 9.90765 13.898 10.1326 13.3324 10.1333Z" fill="#DFE1E6"/>
<path fill-rule="evenodd" clip-rule="evenodd" d="M13.3329 7.73348C13.2861 7.73343 13.2401 7.72107 13.1996 7.69764C13.1591 7.67421 13.1254 7.64052 13.1021 7.59998C13.0787 7.55943 13.0664 7.51345 13.0664 7.46665C13.0665 7.41985 13.0788 7.37388 13.1022 7.33337C13.1257 7.29285 13.1593 7.25921 13.1999 7.23582C13.2404 7.21244 13.2864 7.20014 13.3332 7.20015C13.38 7.20016 13.4259 7.21248 13.4665 7.23589C13.507 7.25929 13.5407 7.29295 13.5641 7.33348C13.6005 7.39244 13.6585 7.43488 13.7258 7.45179C13.793 7.46871 13.8642 7.45877 13.9242 7.42409C13.9843 7.38941 14.0284 7.33271 14.0474 7.26601C14.0663 7.19931 14.0585 7.12787 14.0257 7.06681C13.9291 6.90448 13.7781 6.78164 13.5995 6.72015V6.66681C13.5995 6.59609 13.5714 6.52826 13.5214 6.47825C13.4714 6.42824 13.4036 6.40015 13.3329 6.40015C13.2621 6.40015 13.1943 6.42824 13.1443 6.47825C13.0943 6.52826 13.0662 6.59609 13.0662 6.66681V6.71588C12.8884 6.7785 12.7385 6.90202 12.6431 7.06456C12.5476 7.22709 12.5128 7.41817 12.5447 7.60393C12.5767 7.78969 12.6733 7.95815 12.8176 8.07948C12.9618 8.20081 13.1444 8.26717 13.3329 8.26681C13.3796 8.26686 13.4256 8.27922 13.4661 8.30265C13.5066 8.32609 13.5403 8.35977 13.5636 8.40032C13.587 8.44086 13.5993 8.48684 13.5993 8.53364C13.5992 8.58044 13.5869 8.62641 13.5635 8.66693C13.54 8.70744 13.5064 8.74108 13.4658 8.76447C13.4253 8.78785 13.3793 8.80016 13.3325 8.80015C13.2857 8.80014 13.2398 8.78781 13.1992 8.7644C13.1587 8.741 13.125 8.70734 13.1017 8.66681C13.0652 8.60785 13.0072 8.56542 12.9399 8.5485C12.8727 8.53159 12.8015 8.54152 12.7415 8.57621C12.6814 8.61089 12.6373 8.66759 12.6183 8.73428C12.5994 8.80098 12.6072 8.87243 12.6401 8.93348C12.7369 9.09615 12.8881 9.21881 13.0667 9.28015V9.33348C13.0667 9.4042 13.0948 9.47203 13.1448 9.52204C13.1948 9.57205 13.2627 9.60015 13.3334 9.60015C13.4041 9.60015 13.4719 9.57205 13.5219 9.52204C13.572 9.47203 13.6001 9.4042 13.6001 9.33348V9.28441C13.7779 9.22178 13.9278 9.09822 14.0232 8.93562C14.1187 8.77303 14.1535 8.5819 14.1214 8.3961C14.0894 8.21031 13.9927 8.04184 13.8483 7.92055C13.704 7.79927 13.5214 7.733 13.3329 7.73348Z" fill="#DFE1E6"/>
<path d="M1.07333 14.4H1.06667C0.854493 14.4 0.65101 14.4842 0.500981 14.6343C0.350952 14.7843 0.266667 14.9878 0.266667 15.2C0.266667 15.4121 0.350952 15.6156 0.500981 15.7656C0.65101 15.9157 0.854493 16 1.06667 16H4.26667C4.47884 16 4.68232 15.9157 4.83235 15.7656C4.98238 15.6156 5.06667 15.4121 5.06667 15.2C5.06667 14.9878 4.98238 14.7843 4.83235 14.6343C4.68232 14.4842 4.47884 14.4 4.26667 14.4H4.26C4.70937 14.0651 5.04182 13.5972 5.21017 13.0627C5.37851 12.5282 5.37419 11.9542 5.1978 11.4223C5.02142 10.8904 4.68194 10.4276 4.22758 10.0995C3.77322 9.77152 3.22706 9.59497 2.66667 9.59497C2.10627 9.59497 1.56011 9.77152 1.10575 10.0995C0.651389 10.4276 0.311915 10.8904 0.135532 11.4223C-0.0408518 11.9542 -0.0451785 12.5282 0.123166 13.0627C0.29151 13.5972 0.623968 14.0651 1.07333 14.4ZM4.26667 14.9333C4.33739 14.9333 4.40522 14.9614 4.45523 15.0114C4.50524 15.0614 4.53333 15.1292 4.53333 15.2C4.53333 15.2707 4.50524 15.3385 4.45523 15.3885C4.40522 15.4385 4.33739 15.4666 4.26667 15.4666H1.06667C0.995942 15.4666 0.928115 15.4385 0.878105 15.3885C0.828095 15.3385 0.8 15.2707 0.8 15.2C0.8 15.1292 0.828095 15.0614 0.878105 15.0114C0.928115 14.9614 0.995942 14.9333 1.06667 14.9333H4.26667ZM2.66667 10.1333C3.0886 10.1333 3.50106 10.2584 3.85188 10.4928C4.20271 10.7272 4.47614 11.0604 4.63761 11.4502C4.79908 11.84 4.84132 12.269 4.75901 12.6828C4.67669 13.0966 4.47351 13.4768 4.17516 13.7751C3.87681 14.0735 3.49669 14.2766 3.08286 14.359C2.66903 14.4413 2.24009 14.399 1.85028 14.2376C1.46046 14.0761 1.12728 13.8027 0.892865 13.4518C0.658451 13.101 0.533333 12.6886 0.533333 12.2666C0.533969 11.701 0.758934 11.1588 1.15887 10.7588C1.55881 10.3589 2.10107 10.1339 2.66667 10.1333Z" fill="#DFE1E6"/>
<path fill-rule="evenodd" clip-rule="evenodd" d="M2.66665 12.5333C2.71345 12.5333 2.75941 12.5457 2.79992 12.5691C2.84043 12.5926 2.87406 12.6262 2.89743 12.6668C2.9208 12.7073 2.93309 12.7533 2.93306 12.8001C2.93303 12.8469 2.92069 12.8929 2.89727 12.9334C2.87385 12.9739 2.84018 13.0076 2.79964 13.0309C2.7591 13.0543 2.71313 13.0666 2.66633 13.0666C2.61953 13.0666 2.57356 13.0543 2.53303 13.0309C2.4925 13.0075 2.45885 12.9738 2.43545 12.9333C2.41854 12.9019 2.39548 12.8741 2.36765 12.8518C2.33983 12.8294 2.3078 12.8129 2.27346 12.8031C2.23912 12.7934 2.20317 12.7906 2.16775 12.795C2.13232 12.7994 2.09814 12.8109 2.06723 12.8288C2.03633 12.8466 2.00932 12.8705 1.98781 12.899C1.9663 12.9275 1.95073 12.96 1.94202 12.9946C1.93331 13.0292 1.93164 13.0652 1.93711 13.1005C1.94258 13.1358 1.95507 13.1696 1.97385 13.2C2.07066 13.3623 2.22181 13.4851 2.40052 13.5466V13.6C2.40052 13.6707 2.42861 13.7385 2.47862 13.7885C2.52863 13.8385 2.59646 13.8666 2.66719 13.8666C2.73791 13.8666 2.80574 13.8385 2.85575 13.7885C2.90576 13.7385 2.93385 13.6707 2.93385 13.6V13.5509C3.11168 13.4883 3.26159 13.3647 3.35703 13.2021C3.45246 13.0395 3.48726 12.8484 3.45525 12.6626C3.42324 12.4768 3.32649 12.3083 3.18215 12.187C3.0378 12.0657 2.85518 11.9995 2.66665 12C2.61985 11.9999 2.57389 11.9876 2.53338 11.9641C2.49287 11.9407 2.45924 11.907 2.43587 11.8665C2.4125 11.8259 2.40022 11.7799 2.40024 11.7331C2.40027 11.6863 2.41262 11.6404 2.43604 11.5998C2.45946 11.5593 2.49313 11.5257 2.53366 11.5023C2.5742 11.4789 2.62018 11.4666 2.66698 11.4666C2.71378 11.4666 2.75975 11.479 2.80027 11.5024C2.8408 11.5258 2.87445 11.5594 2.89785 11.6C2.91477 11.6314 2.93782 11.6591 2.96565 11.6815C2.99348 11.7038 3.02551 11.7204 3.05985 11.7301C3.09419 11.7399 3.13013 11.7426 3.16556 11.7382C3.20098 11.7338 3.23516 11.7224 3.26607 11.7045C3.29698 11.6866 3.32399 11.6628 3.3455 11.6343C3.36701 11.6058 3.38258 11.5733 3.39128 11.5386C3.39999 11.504 3.40166 11.468 3.39619 11.4327C3.39073 11.3975 3.37823 11.3636 3.35945 11.3333C3.26278 11.1711 3.11183 11.0483 2.93332 10.9866V10.9333C2.93332 10.8626 2.90522 10.7947 2.85521 10.7447C2.8052 10.6947 2.73738 10.6666 2.66665 10.6666C2.59593 10.6666 2.5281 10.6947 2.47809 10.7447C2.42808 10.7947 2.39999 10.8626 2.39999 10.9333V10.9824C2.2222 11.045 2.07232 11.1685 1.97688 11.331C1.88144 11.4936 1.84661 11.6846 1.87855 11.8704C1.91049 12.0562 2.00714 12.2246 2.15139 12.346C2.29563 12.4673 2.47816 12.5336 2.66665 12.5333Z" fill="#DFE1E6"/>
</svg>
