<svg width="16" height="16" viewBox="0 0 16 16" fill="none" xmlns="http://www.w3.org/2000/svg">
<path d="M5.2105 8.69348V7.26248C5.21052 7.08487 5.16245 6.91057 5.07138 6.75808C4.98031 6.6056 4.84965 6.48062 4.69326 6.39641C4.53688 6.31221 4.36062 6.27193 4.18318 6.27984C4.00575 6.28775 3.83377 6.34357 3.6855 6.44136V5.47611C3.6855 5.2153 3.58189 4.96517 3.39748 4.78076C3.21306 4.59634 2.96293 4.49273 2.70213 4.49273C2.44132 4.49273 2.19119 4.59634 2.00677 4.78076C1.82236 4.96517 1.71875 5.2153 1.71875 5.47611V10.094C1.71947 10.3761 1.83182 10.6464 2.03125 10.846L4.23125 13.0335C4.34385 13.1452 4.42098 13.2877 4.453 13.4431L4.81212 15.1746C4.82238 15.2238 4.84928 15.2681 4.8883 15.2998C4.92732 15.3315 4.97608 15.3489 5.02638 15.3489H6.81837C6.84711 15.3489 6.87556 15.3432 6.90211 15.3322C6.92865 15.3213 6.95278 15.3051 6.97309 15.2848C6.99341 15.2645 7.00952 15.2404 7.02051 15.2138C7.03149 15.1873 7.03714 15.1588 7.03712 15.1301V11.0176C7.03692 10.8068 6.99266 10.5984 6.90718 10.4057C6.8217 10.213 6.69689 10.0403 6.54075 9.89873L5.2105 8.69348ZM6.59962 14.9107H5.20362L4.88075 13.3536C4.83131 13.1142 4.71244 12.8947 4.539 12.7225L2.339 10.535C2.22181 10.4178 2.15579 10.2591 2.15538 10.0934V5.47611C2.15538 5.33133 2.21289 5.19249 2.31526 5.09012C2.41763 4.98774 2.55648 4.93023 2.70125 4.93023C2.84603 4.93023 2.98487 4.98774 3.08724 5.09012C3.18961 5.19249 3.24713 5.33133 3.24713 5.47611C3.24713 10.1947 3.23588 4.56798 3.24713 9.26686C3.24667 9.4062 3.27388 9.54424 3.32718 9.67299C3.38048 9.80173 3.45881 9.91861 3.55763 10.0169L5.1195 11.5779C5.13981 11.5982 5.16393 11.6143 5.19047 11.6253C5.21701 11.6363 5.24546 11.6419 5.27419 11.6419C5.30292 11.6419 5.33136 11.6363 5.3579 11.6253C5.38444 11.6143 5.40856 11.5982 5.42888 11.5779C5.44919 11.5575 5.4653 11.5334 5.4763 11.5069C5.48729 11.4803 5.49295 11.4519 5.49295 11.4232C5.49295 11.3944 5.48729 11.366 5.4763 11.3395C5.4653 11.3129 5.44919 11.2888 5.42888 11.2685L3.8675 9.70698C3.75108 9.59004 3.68553 9.43187 3.68513 9.26686V7.18961C3.7042 7.05285 3.77435 6.92839 3.88146 6.84126C3.98857 6.75412 4.1247 6.71077 4.26248 6.71993C4.40025 6.72908 4.52945 6.79006 4.6241 6.8906C4.71874 6.99114 4.77181 7.12378 4.77263 7.26186V8.79048C4.7726 8.82108 4.77898 8.85135 4.79136 8.87934C4.80374 8.90733 4.82184 8.93241 4.8445 8.95298L6.24712 10.222C6.35804 10.3225 6.44671 10.4451 6.50741 10.5819C6.56812 10.7188 6.59953 10.8668 6.59962 11.0165V14.9107ZM13.2991 4.49261C13.0384 4.49291 12.7884 4.59662 12.604 4.781C12.4196 4.96537 12.3159 5.21536 12.3156 5.47611V6.44073C12.1674 6.34294 11.9954 6.28713 11.8179 6.27921C11.6405 6.2713 11.4642 6.31158 11.3079 6.39579C11.1515 6.47999 11.0208 6.60497 10.9297 6.75746C10.8387 6.90994 10.7906 7.08425 10.7906 7.26186V8.69348L9.46 9.89761C9.30386 10.0392 9.17905 10.2119 9.09357 10.4046C9.00809 10.5973 8.96383 10.8057 8.96362 11.0165V15.129C8.96361 15.1577 8.96926 15.1862 8.98024 15.2127C8.99123 15.2393 9.00734 15.2634 9.02766 15.2837C9.04797 15.304 9.0721 15.3201 9.09864 15.3311C9.12519 15.3421 9.15364 15.3477 9.18237 15.3477H10.9754C11.0257 15.3477 11.0744 15.3304 11.1135 15.2987C11.1525 15.2669 11.1794 15.2227 11.1896 15.1735L11.5487 13.442C11.5808 13.2866 11.658 13.1441 11.7706 13.0324L13.9699 10.8449C14.1694 10.6454 14.2817 10.375 14.2824 10.0929V5.47611C14.2821 5.21539 14.1784 4.96543 13.9941 4.78105C13.8098 4.59667 13.5598 4.49294 13.2991 4.49261ZM13.8449 10.094C13.8445 10.2597 13.7784 10.4185 13.6611 10.5356L11.4619 12.7231C11.2884 12.8953 11.1694 13.1148 11.12 13.3542L10.7971 14.9114H9.40112V11.0165C9.40122 10.8668 9.43263 10.7188 9.49334 10.5819C9.55404 10.4451 9.64271 10.3225 9.75362 10.222L11.1559 8.95273C11.1785 8.93216 11.1966 8.90708 11.209 8.87909C11.2214 8.8511 11.2278 8.82083 11.2277 8.79023V7.26248C11.2286 7.12441 11.2816 6.99176 11.3763 6.89122C11.4709 6.79068 11.6001 6.7297 11.7379 6.72055C11.8757 6.7114 12.0118 6.75475 12.1189 6.84188C12.226 6.92902 12.2962 7.05348 12.3152 7.19023V9.26686C12.3148 9.4319 12.2493 9.59011 12.1329 9.70711L10.5719 11.2685C10.5308 11.3095 10.5078 11.3652 10.5078 11.4232C10.5078 11.4812 10.5308 11.5368 10.5719 11.5779C10.6129 11.6189 10.6685 11.6419 10.7266 11.6419C10.7846 11.6419 10.8402 11.6189 10.8812 11.5779L12.4426 10.0166C12.5414 9.91835 12.6197 9.80146 12.673 9.67272C12.7263 9.54398 12.7536 9.40594 12.7531 9.26661V5.47611C12.7531 5.40442 12.7672 5.33344 12.7947 5.26721C12.8221 5.20098 12.8623 5.1408 12.913 5.09012C12.9637 5.03943 13.0239 4.99922 13.0901 4.97178C13.1563 4.94435 13.2273 4.93023 13.299 4.93023C13.3707 4.93023 13.4417 4.94435 13.5079 4.97178C13.5741 4.99922 13.6343 5.03943 13.685 5.09012C13.7357 5.1408 13.7759 5.20098 13.8033 5.26721C13.8308 5.33344 13.8449 5.40442 13.8449 5.47611V10.094ZM11.3587 4.01023C11.3587 3.34601 11.1618 2.6967 10.7928 2.14442C10.4237 1.59214 9.89923 1.16169 9.28557 0.907498C8.67191 0.653311 7.99665 0.586804 7.34519 0.716387C6.69373 0.845971 6.09532 1.16583 5.62565 1.6355C5.15597 2.10518 4.83611 2.70358 4.70653 3.35505C4.57695 4.00651 4.64345 4.68176 4.89764 5.29543C5.15183 5.90909 5.58228 6.4336 6.13456 6.80262C6.68684 7.17164 7.33615 7.36861 8.00037 7.36861C8.89074 7.36752 9.74432 7.01334 10.3739 6.38376C11.0035 5.75418 11.3577 4.90059 11.3587 4.01023ZM8.00037 6.93111C7.42265 6.93113 6.85788 6.75984 6.37751 6.43888C5.89713 6.11793 5.52272 5.66173 5.30162 5.12798C5.08052 4.59423 5.02267 4.00691 5.13537 3.44028C5.24807 2.87365 5.52627 2.35316 5.93479 1.94465C6.34331 1.53613 6.86379 1.25793 7.43042 1.14523C7.99705 1.03252 8.58438 1.09038 9.11813 1.31148C9.65187 1.53258 10.1081 1.90699 10.429 2.38736C10.75 2.86774 10.9213 3.4325 10.9212 4.01023C10.9204 4.78463 10.6124 5.52707 10.0648 6.07465C9.51721 6.62224 8.77478 6.93025 8.00037 6.93111Z" fill="#DFE1E6"/>
<path d="M9.77637 3.25863H8.75199V2.23425C8.75199 2.17624 8.72894 2.1206 8.68792 2.07957C8.6469 2.03855 8.59126 2.0155 8.53324 2.0155H7.46749C7.40947 2.0155 7.35383 2.03855 7.31281 2.07957C7.27179 2.1206 7.24874 2.17624 7.24874 2.23425V3.25925H6.22437C6.16635 3.25925 6.11071 3.2823 6.06969 3.32332C6.02866 3.36435 6.00562 3.41999 6.00562 3.478V4.54363C6.0056 4.57236 6.01125 4.60081 6.02223 4.62736C6.03322 4.65391 6.04933 4.67803 6.06965 4.69834C6.08997 4.71866 6.11409 4.73477 6.14063 4.74576C6.16718 4.75675 6.19563 4.76239 6.22437 4.76238H7.24937V5.78738C7.24937 5.84539 7.27241 5.90103 7.31344 5.94206C7.35446 5.98308 7.4101 6.00613 7.46812 6.00613H8.53386C8.59188 6.00613 8.64752 5.98308 8.68855 5.94206C8.72957 5.90103 8.75261 5.84539 8.75261 5.78738V4.76175H9.77699C9.80572 4.76177 9.83417 4.75612 9.86072 4.74513C9.88727 4.73415 9.91139 4.71804 9.93171 4.69772C9.95202 4.6774 9.96813 4.65328 9.97912 4.62673C9.99011 4.60019 9.99576 4.57173 9.99574 4.543V3.47738C9.99574 3.4486 9.99006 3.4201 9.97903 3.39352C9.968 3.36694 9.95183 3.3428 9.93145 3.32248C9.91107 3.30216 9.88688 3.28606 9.86027 3.2751C9.83366 3.26414 9.80514 3.25855 9.77637 3.25863ZM9.55762 4.32425H8.53324C8.50451 4.32424 8.47606 4.32988 8.44951 4.34087C8.42296 4.35186 8.39884 4.36797 8.37852 4.38829C8.35821 4.4086 8.3421 4.43272 8.33111 4.45927C8.32012 4.48582 8.31447 4.51427 8.31449 4.543V5.568H7.68624V4.543C7.68626 4.51427 7.68061 4.48582 7.66962 4.45927C7.65864 4.43272 7.64252 4.4086 7.62221 4.38829C7.60189 4.36797 7.57777 4.35186 7.55122 4.34087C7.52467 4.32988 7.49622 4.32424 7.46749 4.32425H6.44312V3.69613H7.46812C7.49685 3.69614 7.5253 3.6905 7.55185 3.67951C7.57839 3.66852 7.60252 3.65241 7.62283 3.63209C7.64315 3.61178 7.65926 3.58766 7.67025 3.56111C7.68123 3.53456 7.68688 3.50611 7.68687 3.47738V2.453H8.31511V3.478C8.3151 3.50673 8.32075 3.53519 8.33173 3.56173C8.34272 3.58828 8.35883 3.6124 8.37915 3.63272C8.39947 3.65304 8.42359 3.66915 8.45013 3.68014C8.47668 3.69112 8.50513 3.69677 8.53386 3.69675H9.55824L9.55762 4.32425Z" fill="#DFE1E6"/>
</svg>
