<svg width="1441" height="1461" viewBox="0 0 1441 1461" fill="none" xmlns="http://www.w3.org/2000/svg">
<path d="M513.928 178.981C513.762 185.874 513.762 192.809 513.346 199.703C506.616 316.394 613.797 412.196 721.601 411.656C841.535 411.075 950.918 294.011 926.989 169.554C906.509 62.9963 790.064 -19.0194 683.755 3.86197C589.785 24.0856 534.367 82.2648 513.886 178.981M691.482 571.203C690.278 586.651 693.933 602.514 689.114 617.464C679.227 620.121 673.453 614.183 667.013 610.695C636.604 594.25 606.402 577.39 575.868 561.195C557.091 551.228 538.313 555.589 528.675 571.203C520.367 584.657 525.394 602.597 541.18 614.515C545.002 617.422 549.447 619.54 553.684 621.824C593.233 643.127 632.865 664.389 672.414 685.734C683.672 691.797 692.272 698.483 692.23 714.055C691.358 947.104 691.15 1180.19 690.444 1413.24C690.361 1446.22 698.503 1461.17 719.524 1461C740.046 1460.83 748.022 1448.25 748.022 1415.36C748.022 1187.13 748.355 958.898 747.274 730.666C747.15 704.379 754.171 689.222 778.556 677.719C818.521 658.866 856.906 636.649 895.333 614.723C910.123 606.293 919.636 593.42 910.081 574.94C901.108 557.582 882.58 550.854 864.716 559.575C841.743 570.787 819.476 583.453 796.627 594.914C781.547 602.514 767.963 613.477 749.933 617.671C749.019 612.356 747.814 608.369 747.814 604.424C747.607 577.473 748.23 550.481 747.399 523.53C746.859 506.545 733.15 492.634 719.274 492.717C705.15 492.8 692.396 506.504 691.648 523.488C691.025 537.981 691.482 552.516 691.441 571.161M1214.38 472.161C1206.12 448.906 1192.99 429.056 1174.21 412.694C1132.05 375.943 1070.94 368.884 1019.05 395.419C972.146 419.422 940.823 475.192 946.14 525.357C951.998 580.837 993.915 632.206 1045.68 646.657C1157.05 677.802 1247.99 569.542 1214.42 472.161M434.622 403.808C382.86 371.417 330.516 369.963 278.379 402.23C243.483 423.824 209.003 482.958 222.836 544.127C242.943 633.119 346.51 679.588 425.441 633.825C500.592 590.222 526.931 473.116 434.622 403.808ZM441.518 1049.63C492.533 1063.92 541.762 1041.79 568.64 992.452C591.405 950.676 579.732 897.023 540.598 863.386C502.587 830.746 444.219 828.337 404.213 858.569C372.557 882.53 356.48 916.167 361.382 954.454C367.198 999.76 392.705 1033.56 441.518 1049.63ZM957.066 1053.45C1031.47 1065.58 1101.55 982.111 1073.64 910.104C1055.44 863.137 1004.01 830.081 955.571 838.387C898.906 848.104 861.559 890.545 861.85 944.903C862.099 996.397 895.583 1035.89 957.066 1053.41M1372.12 858.403C1370.25 847.274 1365.23 837.432 1359.58 827.922C1334.82 786.229 1282.39 764.386 1238.48 777.425C1190.21 791.752 1155.77 837.141 1158.05 883.402C1161.21 947.976 1215.13 994.113 1280.1 987.801C1336.52 982.278 1387.2 924.472 1372.12 858.403ZM101.905 960.933C128.534 983.565 158.486 993.822 193.798 987.427C248.676 977.543 291.341 917.288 279.833 864.839C265.667 800.265 207.008 762.143 147.727 776.719C74.6526 794.659 32.445 890.088 101.863 960.933M1019.92 1312.13C1047.67 1313.62 1075.05 1311.67 1101.93 1303.95C1186.3 1279.65 1234.03 1217.86 1268.14 1142.03C1273.46 1130.16 1267.31 1125.25 1256.84 1123.3C1213.55 1115.29 1169.77 1112.96 1128.02 1128.12C1051.87 1155.74 1014.98 1214.58 1004.55 1292.44C1003.26 1301.95 1006.96 1308.55 1019.92 1312.13ZM173.525 1138.67C179.424 1155.78 188.439 1171.31 198.035 1186.47C248.302 1265.74 316.599 1314.12 414.225 1312.79C429.139 1312.58 438.735 1309.8 436.118 1292.11C430.219 1252.7 419.916 1215.24 393.121 1184.06C338.326 1120.31 266.539 1111.3 189.187 1120.44C181.127 1121.39 172.279 1123.97 173.566 1138.63M821.429 1372.76C821.429 1390.74 820.93 1408.72 821.553 1426.66C822.218 1446.17 834.972 1460.34 850.841 1460.63C868.788 1460.96 880.42 1447.92 880.669 1426.03C881.043 1392.9 880.42 1359.72 880.96 1326.54C881.832 1271.1 919.013 1224.5 972.977 1210.43C981.618 1208.18 990.508 1206.61 999.066 1203.99C1015.64 1198.96 1025.7 1186.76 1023.33 1170.19C1021 1153.95 1007.83 1146.77 991.048 1147.51C930.687 1150.21 884.532 1178.49 850.799 1227.24C821.262 1269.93 820.39 1319.23 821.429 1372.71M536.029 1258.1C552.937 1281.27 560.248 1307.23 559.708 1335.88C559.126 1365.57 559.334 1395.3 559.5 1425.04C559.625 1446.84 569.554 1459.84 585.922 1460.58C603.827 1461.37 615.833 1448.96 616.082 1426.49C616.58 1388.49 615.708 1350.5 615.542 1312.46C615.417 1285.51 607.939 1260.38 594.521 1237.46C560.788 1179.78 509.773 1150.46 443.139 1147.72C430.302 1147.18 422.201 1154.2 416.468 1164.21C410.61 1174.46 417.382 1182.69 422.824 1190.7C429.886 1201.12 440.189 1205.57 452.403 1207.69C485.595 1213.37 513.762 1228.12 535.987 1258.14M107.721 165.443C130.196 174.579 133.062 198.872 145.608 217.103C155.121 185.999 174.854 166.274 208.089 152.321C178.178 136.831 159.566 117.189 144.652 85.7946C130.985 122.421 108.261 140.818 73.9049 150.701C87.4063 156.598 96.1719 160.418 107.721 165.402M1337.23 140.527C1315.87 131.267 1306.53 110.877 1293.02 85.3378C1281.64 121.881 1257.8 138.077 1230.5 152.777C1263.82 161.581 1280.73 185.75 1295.85 214.03C1306.4 189.321 1320.07 170.717 1343.04 159.173C1353.1 154.106 1347.15 146.59 1337.23 140.569M570.177 1078.58C555.429 1078.04 536.236 1072.76 535.821 1095.9C535.239 1127.91 577.779 1164.12 609.767 1161.51C626.26 1160.18 633.198 1150.84 628.545 1135.06C620.195 1106.69 603.951 1085.85 570.177 1078.54M889.974 1077.79C848.099 1077.17 821.553 1096.73 812.414 1134.85C808.052 1153.08 815.986 1162.38 834.93 1161.26C867.998 1159.31 898.574 1132.15 904.473 1099.67C906.342 1089.33 903.393 1082.03 889.933 1077.75M1435.89 452.851C1411.17 442.428 1385.62 451.398 1360.53 449.903C1349.56 449.238 1340.76 454.221 1341.38 466.306C1341.96 477.061 1349.73 483.913 1360.61 484.245C1381.22 484.868 1401.95 485.491 1422.51 484.121C1440.5 482.958 1446.23 470.583 1435.89 452.851ZM4.73585 477.518C27.8337 491.845 53.3411 482.086 77.6022 484.536C88.2372 485.616 97.8751 481.38 98.4983 469.462C99.1214 457.46 91.436 449.903 79.2639 449.529C58.534 448.864 37.721 447.951 17.0741 449.321C1.62013 450.359 -5.35908 459.412 4.73585 477.518ZM1318.03 367.222C1331.04 359.374 1344.25 351.899 1356.96 343.594C1364.48 338.693 1372.99 332.921 1366.02 322.041C1359.74 312.241 1351.02 307.881 1339.51 313.943C1324.89 321.667 1309.97 328.935 1295.77 337.365C1285.34 343.552 1275.91 351.276 1284.18 365.728C1293.19 381.508 1304.12 376.317 1317.99 367.222M157.448 365.271C159.733 358.128 159.276 350.695 153.792 345.961C135.887 330.513 115.448 318.719 92.9731 311.659C82.2965 308.296 71.5369 321.584 73.9879 332.631C76.8129 345.338 135.721 378.808 148.225 374.448C151.216 373.41 153.501 370.212 157.448 365.312M1368.01 587.606C1355.55 582.207 1342.46 576.892 1335.07 593.959C1328.29 609.574 1340.09 616.259 1351.35 622.198C1361.07 627.306 1370.79 632.455 1380.89 636.691C1391.48 641.134 1399.5 636.691 1405.23 627.389C1411.01 617.962 1405.31 611.193 1398.71 606.251C1389.99 599.732 1380.1 594.748 1368.01 587.564M102.237 590.18C85.163 580.006 41.0444 594.375 34.9376 611.941C32.1542 619.997 37.5548 624.98 41.2936 630.503C45.7387 637.106 51.9702 638.808 59.3648 635.403C73.1571 629.05 86.9909 622.779 99.1214 613.477C106.475 607.871 110.587 601.351 102.279 590.18H102.237ZM661.031 316.975C647.197 309.334 640.426 299.326 645.91 285.373C651.31 271.711 663.607 268.721 676.859 270.216C695.387 272.292 713.749 275.074 732.444 270.589C743.037 268.056 751.263 263.488 750.473 251.736C749.642 239.403 739.132 239.403 730.117 239.361C711.464 239.195 692.77 239.361 674.117 239.776C657.251 240.192 647.987 232.758 647.571 215.483C646.99 190.692 645.91 165.858 646.117 141.067C646.284 124.664 655.008 115.985 672.373 116.151C706.936 116.483 741.5 116.441 776.064 115.902C790.77 115.652 797.915 123.459 800.075 136.374C802.568 151.324 794.924 161.166 780.467 162.744C762.687 164.696 744.574 163.45 726.711 164.945C716.491 165.817 700.829 159.422 699.791 178.233C698.711 197.917 713.832 194.761 725.963 195.093C732.194 195.26 738.426 195.093 744.616 195.218C780.633 195.965 803.357 217.933 804.354 252.94C805.31 286.702 780.633 316.227 747.607 317.889C719.358 319.3 690.984 317.847 660.948 317.016L661.031 316.975Z" fill="#F2F2F2"/>
</svg>
