<svg width="16" height="16" viewBox="0 0 16 16" fill="none" xmlns="http://www.w3.org/2000/svg">
<path fill-rule="evenodd" clip-rule="evenodd" d="M7.5 9.99999C7.5 9.60199 7.342 9.22049 7.0605 8.93949C6.92131 8.8001 6.756 8.68953 6.57402 8.61412C6.39205 8.5387 6.19698 8.49992 6 8.49999H2.5C2.102 8.49999 1.7205 8.65799 1.4395 8.93949C1.30011 9.07868 1.18955 9.24399 1.11413 9.42597C1.03872 9.60794 0.999933 9.803 1 9.99999V13.5C1 13.898 1.158 14.2795 1.4395 14.5605C1.57869 14.6999 1.744 14.8104 1.92598 14.8859C2.10795 14.9613 2.30302 15.0001 2.5 15H6C6.398 15 6.7795 14.842 7.0605 14.5605C7.19989 14.4213 7.31045 14.256 7.38587 14.074C7.46128 13.892 7.50007 13.697 7.5 13.5V9.99999ZM15 9.99999C15 9.60199 14.842 9.22049 14.5605 8.93949C14.4213 8.8001 14.256 8.68953 14.074 8.61412C13.892 8.5387 13.697 8.49992 13.5 8.49999H10C9.602 8.49999 9.2205 8.65799 8.9395 8.93949C8.80011 9.07868 8.68955 9.24399 8.61413 9.42597C8.53872 9.60794 8.49993 9.803 8.5 9.99999V13.5C8.5 13.898 8.658 14.2795 8.9395 14.5605C9.07869 14.6999 9.244 14.8104 9.42598 14.8859C9.60795 14.9613 9.80302 15.0001 10 15H13.5C13.898 15 14.2795 14.842 14.5605 14.5605C14.6999 14.4213 14.8105 14.256 14.8859 14.074C14.9613 13.892 15.0001 13.697 15 13.5V9.99999ZM6.5 9.99999V13.5C6.5002 13.5657 6.4874 13.6308 6.46234 13.6916C6.43729 13.7523 6.40046 13.8075 6.35399 13.854C6.30753 13.9005 6.25233 13.9373 6.19158 13.9623C6.13082 13.9874 6.06572 14.0002 6 14H2.5C2.43428 14.0002 2.36918 13.9874 2.30842 13.9623C2.24767 13.9373 2.19247 13.9005 2.14601 13.854C2.09954 13.8075 2.06271 13.7523 2.03766 13.6916C2.0126 13.6308 1.9998 13.5657 2 13.5V9.99999C1.9998 9.93427 2.0126 9.86916 2.03766 9.80841C2.06271 9.74766 2.09954 9.69246 2.14601 9.64599C2.19247 9.59952 2.24767 9.5627 2.30842 9.53764C2.36918 9.51259 2.43428 9.49979 2.5 9.49999H6C6.06572 9.49979 6.13082 9.51259 6.19158 9.53764C6.25233 9.5627 6.30753 9.59952 6.35399 9.64599C6.40046 9.69246 6.43729 9.74766 6.46234 9.80841C6.4874 9.86916 6.5002 9.93427 6.5 9.99999ZM14 9.99999V13.5C14.0002 13.5657 13.9874 13.6308 13.9623 13.6916C13.9373 13.7523 13.9005 13.8075 13.854 13.854C13.8075 13.9005 13.7523 13.9373 13.6916 13.9623C13.6308 13.9874 13.5657 14.0002 13.5 14H10C9.93428 14.0002 9.86918 13.9874 9.80842 13.9623C9.74767 13.9373 9.69247 13.9005 9.646 13.854C9.59954 13.8075 9.56271 13.7523 9.53766 13.6916C9.5126 13.6308 9.4998 13.5657 9.5 13.5V9.99999C9.4998 9.93427 9.5126 9.86916 9.53766 9.80841C9.56271 9.74766 9.59954 9.69246 9.646 9.64599C9.69247 9.59952 9.74767 9.5627 9.80842 9.53764C9.86918 9.51259 9.93428 9.49979 10 9.49999H13.5C13.5657 9.49979 13.6308 9.51259 13.6916 9.53764C13.7523 9.5627 13.8075 9.59952 13.854 9.64599C13.9005 9.69246 13.9373 9.74766 13.9623 9.80841C13.9874 9.86916 14.0002 9.93427 14 9.99999ZM12.8105 7.39649L14.8965 5.31049C15.1777 5.02919 15.3357 4.64773 15.3357 4.24999C15.3357 3.85224 15.1777 3.47078 14.8965 3.18949L12.8105 1.10349C12.5292 0.82228 12.1477 0.664307 11.75 0.664307C11.3523 0.664307 10.9708 0.82228 10.6895 1.10349L8.6035 3.18949C8.32229 3.47078 8.16432 3.85224 8.16432 4.24999C8.16432 4.64773 8.32229 5.02919 8.6035 5.31049L10.6895 7.39649C10.9708 7.67769 11.3523 7.83567 11.75 7.83567C12.1477 7.83567 12.5292 7.67769 12.8105 7.39649ZM7.5 2.49999C7.5 2.10199 7.342 1.72049 7.0605 1.43949C6.92131 1.3001 6.756 1.18953 6.57402 1.11412C6.39205 1.0387 6.19698 0.999919 6 0.999986H2.5C2.102 0.999986 1.7205 1.15799 1.4395 1.43949C1.30011 1.57868 1.18955 1.74399 1.11413 1.92597C1.03872 2.10794 0.999933 2.303 1 2.49999V5.99999C1 6.39799 1.158 6.77949 1.4395 7.06049C1.57869 7.19987 1.744 7.31044 1.92598 7.38585C2.10795 7.46127 2.30302 7.50005 2.5 7.49999H6C6.398 7.49999 6.7795 7.34199 7.0605 7.06049C7.19989 6.9213 7.31045 6.75598 7.38587 6.57401C7.46128 6.39203 7.50007 6.19697 7.5 5.99999V2.49999ZM14.1895 4.60349L12.1035 6.68949C12.0097 6.78322 11.8826 6.83588 11.75 6.83588C11.6174 6.83588 11.4903 6.78322 11.3965 6.68949L9.3105 4.60349C9.21676 4.50972 9.16411 4.38257 9.16411 4.24999C9.16411 4.1174 9.21676 3.99025 9.3105 3.89649L11.3965 1.81049C11.4903 1.71675 11.6174 1.66409 11.75 1.66409C11.8826 1.66409 12.0097 1.71675 12.1035 1.81049L14.1895 3.89649C14.2832 3.99025 14.3359 4.1174 14.3359 4.24999C14.3359 4.38257 14.2832 4.50972 14.1895 4.60349ZM6.5 2.49999V5.99999C6.5002 6.0657 6.4874 6.13081 6.46234 6.19156C6.43729 6.25231 6.40046 6.30751 6.35399 6.35398C6.30753 6.40045 6.25233 6.43727 6.19158 6.46233C6.13082 6.48739 6.06572 6.50018 6 6.49999H2.5C2.43428 6.50018 2.36918 6.48739 2.30842 6.46233C2.24767 6.43727 2.19247 6.40045 2.14601 6.35398C2.09954 6.30751 2.06271 6.25231 2.03766 6.19156C2.0126 6.13081 1.9998 6.0657 2 5.99999V2.49999C1.9998 2.43427 2.0126 2.36916 2.03766 2.30841C2.06271 2.24766 2.09954 2.19246 2.14601 2.14599C2.19247 2.09952 2.24767 2.0627 2.30842 2.03764C2.36918 2.01259 2.43428 1.99979 2.5 1.99999H6C6.06572 1.99979 6.13082 2.01259 6.19158 2.03764C6.25233 2.0627 6.30753 2.09952 6.35399 2.14599C6.40046 2.19246 6.43729 2.24766 6.46234 2.30841C6.4874 2.36916 6.5002 2.43427 6.5 2.49999Z" fill="#DFE1E6"/>
</svg>
