<svg width="24" height="24" viewBox="0 0 24 24" fill="none" xmlns="http://www.w3.org/2000/svg">
<path d="M3.17 20.0003L3.17 20.0001L3.17 3.00011V2.99983C3.17134 2.76127 3.21983 2.52532 3.31268 2.30556C3.40553 2.0858 3.54091 1.88656 3.71103 1.71931C3.88116 1.55205 4.08266 1.42008 4.30397 1.33098C4.52519 1.24191 4.76183 1.19744 5.00028 1.20011M3.17 20.0003L12.2 17.0501C12.1574 17.016 12.1045 16.9975 12.05 16.9975C11.9955 16.9975 11.9426 17.016 11.9 17.0501L6.05 21.4001M3.17 20.0003C3.17094 20.3393 3.26812 20.671 3.45024 20.9569C3.63231 21.2428 3.89179 21.4711 4.1985 21.6153M3.17 20.0003L4.1985 21.6153M5.00028 1.20011C5.00038 1.20012 5.00047 1.20012 5.00057 1.20012L5 1.25011V1.20011H5.00028ZM5.00028 1.20011H19H19.0003C19.4768 1.20281 19.933 1.39329 20.2699 1.73022C20.6068 2.06715 20.7973 2.52335 20.8 2.99983L20.8 3.00011L20.8 20.0001V20.0011C20.7933 20.3269 20.6983 20.6447 20.5252 20.9207C20.3521 21.1967 20.1073 21.4205 19.817 21.5683C19.5267 21.7161 19.2016 21.7824 18.8766 21.76C18.5516 21.7376 18.2387 21.6274 17.9714 21.4411L17.97 21.4401L17.97 21.4401L12.17 17.0901L12.1687 17.0892L12.1688 17.0891C12.1351 17.0622 12.0932 17.0475 12.05 17.0475C12.0068 17.0475 11.9649 17.0622 11.9313 17.0891L11.9299 17.0903L11.9298 17.0902L6.07985 21.4402M6.07985 21.4402L6.05 21.4001M6.07985 21.4402C5.76769 21.6725 5.38929 21.7986 5.00019 21.8001L4.99981 21.8001C4.72226 21.7991 4.44846 21.7359 4.1985 21.6153M6.07985 21.4402L6.07984 21.4402L6.05 21.4001M6.05 21.4001C5.74641 21.626 5.37842 21.7487 5 21.7501L4.1985 21.6153M19.3 3.00011V19.9801C19.3004 20.0264 19.2873 20.0718 19.2625 20.1108C19.2376 20.1498 19.2021 20.1808 19.16 20.2001C19.1217 20.2263 19.0764 20.2404 19.03 20.2404C18.9836 20.2404 18.9383 20.2263 18.9 20.2001L19.3 3.00011ZM19.3 3.00011C19.3008 2.96262 19.2931 2.92543 19.2775 2.89131M19.3 3.00011L19.2775 2.89131M19.2775 2.89131C19.2619 2.85719 19.2389 2.82701 19.2101 2.803M19.2775 2.89131L19.2101 2.803M19.2101 2.803C19.1813 2.77899 19.1474 2.76177 19.1111 2.75261M19.2101 2.803L19.1111 2.75261M19.1111 2.75261C19.0747 2.74346 19.0367 2.74261 19 2.75011L19.1111 2.75261ZM4.8 20.0005V20.0001V3.00011C4.8 2.94707 4.82107 2.8962 4.85858 2.85869C4.89609 2.82119 4.94696 2.80011 5 2.80011H19V2.80115L19.01 2.7991C19.0394 2.79309 19.0698 2.79378 19.0989 2.8011C19.128 2.80843 19.155 2.8222 19.1781 2.84141C19.2011 2.86062 19.2196 2.88476 19.232 2.91206C19.2445 2.93936 19.2506 2.96911 19.25 2.9991V3.00011L19.25 19.9801L19.25 19.9805C19.2503 20.0171 19.24 20.053 19.2203 20.0839C19.2006 20.1148 19.1725 20.1394 19.1392 20.1547L19.1389 20.154L19.1317 20.1589C19.1018 20.1794 19.0663 20.1904 19.03 20.1904C18.994 20.1904 18.9589 20.1796 18.9291 20.1594L13.13 15.8101L13.1297 15.8099C12.8169 15.5794 12.4385 15.455 12.05 15.455C11.6615 15.455 11.2831 15.5794 10.9703 15.8099L10.9701 15.8101L5.12093 20.1794C5.09114 20.1996 5.05599 20.2104 5.02 20.2104C4.98369 20.2104 4.94822 20.1994 4.91826 20.1789L4.91868 20.1783L4.91083 20.1747C4.87754 20.1594 4.84936 20.1348 4.8297 20.1039C4.81003 20.073 4.79972 20.0371 4.8 20.0005Z" fill="white" stroke="white" stroke-width="0.1"/>
</svg>
