<svg width="16" height="16" viewBox="0 0 16 16" fill="none" xmlns="http://www.w3.org/2000/svg">
<g clip-path="url(#clip0_7922_528)">
<path d="M5.45164 2.31531C5.4831 2.36979 5.53395 2.41041 5.59403 2.42906C5.65411 2.44771 5.71902 2.44303 5.7758 2.41594C6.35746 2.13837 6.9823 1.97256 7.63296 1.92309C7.6958 1.91832 7.75452 1.88998 7.79737 1.84376C7.84021 1.79754 7.86402 1.73684 7.86402 1.67381V0.500186C7.86401 0.466021 7.85699 0.43222 7.84341 0.40087C7.82983 0.36952 7.80997 0.341286 7.78505 0.31791C7.76013 0.294533 7.73069 0.276511 7.69854 0.264954C7.66639 0.253398 7.63221 0.248553 7.59811 0.250717C6.67905 0.309405 5.79571 0.545967 4.97261 0.953842C4.94201 0.969021 4.91483 0.990309 4.89277 1.01639C4.87071 1.04248 4.85423 1.07281 4.84434 1.10551C4.83445 1.13821 4.83137 1.17259 4.83528 1.20653C4.83919 1.24047 4.85001 1.27325 4.86708 1.30284L5.45164 2.31531ZM7.36402 0.772124V1.44665C6.8118 1.51062 6.27786 1.65228 5.77142 1.86919L5.43605 1.28828C6.04892 1.01544 6.69533 0.842374 7.36402 0.772124ZM1.82727 10.2441C1.84241 10.2748 1.86369 10.302 1.88977 10.3241C1.91585 10.3462 1.94619 10.3627 1.97891 10.3727C2.01163 10.3826 2.04604 10.3857 2.08001 10.3818C2.11397 10.3779 2.14678 10.367 2.17639 10.3499L3.19364 9.76266C3.24812 9.7312 3.28874 9.68037 3.3074 9.62029C3.32606 9.56021 3.32138 9.49531 3.2943 9.43853C3.01602 8.85497 2.84939 8.23069 2.79896 7.58306C2.79407 7.52031 2.76569 7.4617 2.71949 7.41896C2.67328 7.37621 2.61265 7.35247 2.54971 7.35247H1.37574C1.34156 7.35248 1.30775 7.3595 1.2764 7.37308C1.24504 7.38667 1.2168 7.40654 1.19342 7.43147C1.17005 7.45639 1.15203 7.48585 1.14048 7.51801C1.12893 7.55017 1.12409 7.58436 1.12627 7.61847C1.18527 8.5384 1.42114 9.42178 1.82727 10.2441ZM2.32302 7.85244C2.38723 8.40024 2.53022 8.93591 2.74755 9.44284L2.16221 9.78078C1.89055 9.16831 1.71805 8.52175 1.64774 7.85244H2.32302ZM1.37577 6.98947H2.55433C2.6169 6.98947 2.67719 6.96601 2.7233 6.92372C2.76941 6.88143 2.79799 6.82339 2.80339 6.76106C2.85968 6.11187 3.02761 5.48819 3.30255 4.90734C3.3294 4.8506 3.33393 4.78582 3.31522 4.72589C3.29651 4.66597 3.25595 4.61527 3.20158 4.58387L2.17824 3.99306C2.14864 3.97597 2.11586 3.96513 2.08191 3.96121C2.04796 3.95728 2.01356 3.96037 1.98085 3.97026C1.94814 3.98015 1.9178 3.99665 1.89171 4.01872C1.86562 4.0408 1.84434 4.068 1.82917 4.09862C1.42177 4.9214 1.1853 5.80453 1.12627 6.72344C1.12407 6.75755 1.1289 6.79175 1.14044 6.82392C1.15199 6.8561 1.17001 6.88556 1.19339 6.9105C1.21678 6.93543 1.24503 6.9553 1.27639 6.96889C1.30776 6.98247 1.34159 6.98947 1.37577 6.98947ZM2.1638 4.56206L2.75599 4.90397C2.54105 5.40837 2.39805 5.93987 2.32943 6.48947H1.64777C1.71824 5.82097 1.89124 5.17472 2.1638 4.56206ZM15.5611 7.82334C15.4962 7.68965 15.3635 7.60662 15.2148 7.60659H14.9685C14.9775 7.46156 14.982 7.31587 14.982 7.17097C14.982 5.39631 14.3122 3.70794 13.0958 2.41687C11.8848 1.13147 10.2501 0.362124 8.49283 0.250499C8.45874 0.248343 8.42457 0.253195 8.39243 0.264755C8.36028 0.276316 8.33085 0.294341 8.30595 0.317716C8.28104 0.341092 8.26118 0.369324 8.24761 0.400669C8.23404 0.432014 8.22703 0.465809 8.22702 0.499967V1.6739C8.22701 1.73688 8.25078 1.79754 8.29357 1.84375C8.33636 1.88996 8.39501 1.91832 8.4578 1.92315C11.179 2.13309 13.3106 4.43819 13.3106 7.17094C13.3106 7.31594 13.3046 7.46172 13.2927 7.60653H13.1329C12.9841 7.60653 12.8514 7.68956 12.7865 7.82325C12.7217 7.9569 12.7385 8.11253 12.8305 8.22934L13.8715 9.55162C13.9075 9.59748 13.9534 9.63453 14.0058 9.65995C14.0582 9.68537 14.1157 9.69849 14.1739 9.69831C14.2926 9.69831 14.4028 9.64481 14.4762 9.55156L15.5171 8.22934C15.6091 8.11259 15.626 7.957 15.5611 7.82334ZM14.1738 9.12741L13.3701 8.10662H13.5182C13.5792 8.10662 13.638 8.08435 13.6837 8.04399C13.7294 8.00363 13.7588 7.94796 13.7663 7.88747C13.7958 7.64978 13.8105 7.4105 13.8106 7.171C13.8106 5.70984 13.2629 4.31622 12.2684 3.24687C11.3321 2.24012 10.0818 1.60653 8.72699 1.44719V0.771905C11.975 1.11337 14.4821 3.87406 14.4821 7.171C14.4821 7.39115 14.4708 7.61331 14.4486 7.83125C14.4451 7.86604 14.4489 7.90118 14.4598 7.93441C14.4706 7.96764 14.4884 7.99822 14.5118 8.02417C14.5353 8.05012 14.5639 8.07087 14.5958 8.08507C14.6278 8.09927 14.6624 8.10662 14.6973 8.10662H14.9775L14.1738 9.12741ZM2.36024 3.67903L3.38005 4.26781C3.4347 4.29939 3.49927 4.30913 3.5608 4.29505C3.62233 4.28098 3.67626 4.24414 3.71174 4.19194C4.07755 3.65422 4.53236 3.1955 5.06349 2.8285C5.11515 2.7928 5.15149 2.73896 5.16527 2.67768C5.17905 2.61641 5.16927 2.5522 5.13786 2.49781L4.55308 1.48497C4.53597 1.45534 4.51296 1.42954 4.48548 1.40917C4.45799 1.38879 4.42662 1.37427 4.3933 1.3665C4.35998 1.35874 4.32542 1.35789 4.29176 1.36402C4.2581 1.37015 4.22606 1.38312 4.19761 1.40212C3.43405 1.91272 2.78799 2.55919 2.2773 3.32362C2.25831 3.35207 2.24535 3.38412 2.23924 3.41778C2.23312 3.45143 2.23398 3.48599 2.24175 3.5193C2.24953 3.55261 2.26405 3.58398 2.28443 3.61145C2.30481 3.63892 2.33061 3.66193 2.36024 3.67903ZM4.25636 1.97094L4.59196 2.55222C4.15127 2.88362 3.76274 3.2755 3.43299 3.72103L2.84608 3.38219C3.2398 2.84119 3.71564 2.36503 4.25636 1.97094ZM11.5303 10.4412L9.11996 11.8451C9.02827 11.8985 8.93533 11.9397 8.83961 11.9689C8.86983 11.9077 8.89387 11.8436 8.91136 11.7776C9.03955 11.2991 8.75577 10.7998 8.26533 10.6408C8.25462 10.6373 8.24369 10.6346 8.23261 10.6326C7.54286 10.5082 6.86074 10.2616 6.31261 10.0634C6.12149 9.99431 5.94096 9.92903 5.78711 9.87916C5.15652 9.67456 4.58983 9.92587 4.11864 10.1987L2.35699 11.2187L2.20589 10.9517C2.12652 10.8114 1.99689 10.7104 1.84092 10.6671C1.68499 10.624 1.52183 10.6438 1.38155 10.7232L0.705269 11.1059C0.415019 11.2702 0.312519 11.64 0.476769 11.9303L2.46499 15.4433C2.54436 15.5836 2.67399 15.6847 2.82996 15.7279C2.88389 15.7428 2.93868 15.7502 2.99308 15.7502C3.09599 15.7502 3.19758 15.7237 3.28933 15.6718L3.96561 15.2891C4.10586 15.2097 4.20692 15.0801 4.25017 14.9241C4.29339 14.7681 4.27349 14.605 4.19411 14.4647L4.00677 14.1337L4.37155 13.923L7.44417 14.7463C7.61767 14.7928 7.79033 14.816 7.96011 14.816C8.30361 14.816 8.63546 14.7214 8.93883 14.5346L13.313 11.8412C13.7276 11.5859 13.8598 10.9437 13.5904 10.4938C13.46 10.276 12.9258 9.62853 11.5303 10.4412ZM3.76836 14.7906C3.76399 14.8063 3.7518 14.8356 3.71936 14.8539L3.04308 15.2367C3.01067 15.2551 2.9793 15.2505 2.96352 15.2461C2.94774 15.2417 2.91852 15.2295 2.90014 15.1971L0.911956 11.684C0.883956 11.6346 0.902081 11.5691 0.951581 11.5411L1.62789 11.1583C1.6433 11.1496 1.66073 11.145 1.67846 11.145C1.69033 11.145 1.70043 11.147 1.70746 11.149C1.72324 11.1533 1.75246 11.1655 1.7708 11.1979L3.75902 14.711C3.77733 14.7434 3.77274 14.7747 3.76836 14.7906ZM13.0508 11.4155L8.67674 14.1089C8.33864 14.317 7.96752 14.369 7.57361 14.2634L4.40093 13.4133C4.33689 13.3961 4.26866 13.4051 4.21124 13.4382L3.76049 13.6985L2.60327 11.6538L4.36914 10.6313C4.76386 10.4028 5.19014 10.2111 5.63283 10.3547C5.77877 10.402 5.94736 10.463 6.14258 10.5336C6.70364 10.7364 7.40074 10.9884 8.12549 11.1212C8.35764 11.2037 8.48746 11.4277 8.42839 11.6481C8.35055 11.9385 8.10636 11.9746 7.91146 11.9524C7.55858 11.8797 7.22255 11.7838 6.86705 11.6823C6.69761 11.634 6.52243 11.5839 6.34221 11.5356C6.27854 11.5196 6.21112 11.5293 6.15451 11.5625C6.09791 11.5958 6.05665 11.65 6.03966 11.7134C6.02267 11.7768 6.0313 11.8444 6.0637 11.9015C6.09609 11.9586 6.14965 12.0006 6.2128 12.0186C6.38905 12.0658 6.56227 12.1153 6.72974 12.1631C7.0983 12.2684 7.83027 12.4461 7.83192 12.4464L8.13174 12.4952C8.58858 12.5682 8.99414 12.4969 9.37155 12.2772L11.7819 10.8733C12.4564 10.4804 12.9721 10.4346 13.1614 10.7507C13.2908 10.9667 13.235 11.3021 13.0508 11.4155ZM1.80627 11.8054C1.81134 11.837 1.81008 11.8692 1.80257 11.9003C1.79505 11.9314 1.78143 11.9607 1.7625 11.9865C1.74357 12.0123 1.7197 12.0341 1.69228 12.0506C1.66486 12.0671 1.63443 12.0779 1.60278 12.0826C1.57112 12.0872 1.53886 12.0855 1.50786 12.0775C1.47687 12.0696 1.44777 12.0556 1.42225 12.0363C1.39672 12.017 1.37529 11.9928 1.35919 11.9652C1.34309 11.9375 1.33264 11.9069 1.32846 11.8752C1.32016 11.8123 1.33696 11.7487 1.37522 11.698C1.41348 11.6474 1.47014 11.6139 1.53293 11.6047C1.59571 11.5955 1.65959 11.6114 1.71075 11.649C1.7619 11.6865 1.79621 11.7427 1.80627 11.8054ZM10.1715 4.82834C10.1715 3.83109 9.36014 3.01975 8.36289 3.01975C7.36564 3.01975 6.5543 3.83109 6.5543 4.82834C6.5543 5.43659 6.85642 5.97525 7.31817 6.30328C6.10427 6.70159 5.19217 7.77731 5.04943 9.11125C5.04568 9.14612 5.04932 9.1814 5.0601 9.21478C5.07089 9.24815 5.08858 9.27889 5.11202 9.30498C5.13547 9.33107 5.16414 9.35193 5.19618 9.36621C5.22822 9.38048 5.26291 9.38786 5.29799 9.38784H11.4277C11.4628 9.38786 11.4975 9.38048 11.5295 9.3662C11.5616 9.35192 11.5902 9.33106 11.6137 9.30497C11.6371 9.27887 11.6548 9.24814 11.6656 9.21476C11.6764 9.18137 11.68 9.1461 11.6763 9.11122C11.5335 7.77731 10.6214 6.70162 9.40755 6.30328C9.86933 5.97528 10.1715 5.43659 10.1715 4.82834ZM11.1358 8.88784H5.58989C5.85933 7.58687 7.00561 6.63722 8.36224 6.6369L8.36289 6.63694H8.36352C9.72011 6.63725 10.8664 7.58687 11.1358 8.88784ZM8.36286 6.1369H8.36205C7.64089 6.13644 7.0543 5.54962 7.0543 4.82834C7.0543 4.10678 7.64133 3.51975 8.36289 3.51975C9.08446 3.51975 9.67149 4.10678 9.67149 4.82834C9.67149 5.54962 9.08489 6.13647 8.36371 6.1369H8.36286Z" fill="#DFE1E6"/>
</g>
<defs>
<clipPath id="clip0_7922_528">
<rect width="16" height="16" fill="white"/>
</clipPath>
</defs>
</svg>
