<svg width="16" height="16" viewBox="0 0 16 16" fill="none" xmlns="http://www.w3.org/2000/svg">
<g clip-path="url(#clip0_7922_497)">
<path d="M2.66661 9.54884H4.86546C4.93992 9.54884 5.01133 9.51926 5.06399 9.46661C5.11664 9.41395 5.14622 9.34254 5.14622 9.26808C5.14622 9.19362 5.11664 9.12221 5.06399 9.06956C5.01133 9.0169 4.93992 8.98732 4.86546 8.98732H2.66661C1.50584 8.98732 0.561349 8.04304 0.561349 6.88206C0.561349 5.80126 1.37105 4.90135 2.44445 4.78872C2.48787 4.78421 2.52963 4.76962 2.56642 4.74613C2.60321 4.72264 2.63401 4.69088 2.65638 4.6534C2.67874 4.61591 2.69205 4.57372 2.69525 4.53019C2.69845 4.48665 2.69144 4.44297 2.67479 4.40262C2.57653 4.16533 2.52609 3.91097 2.52636 3.65414C2.52636 2.57059 3.40785 1.68909 4.49124 1.68909C5.03989 1.68909 5.5685 1.9233 5.94095 2.33161C6.00086 2.39728 6.08746 2.43247 6.17677 2.42137C6.22037 2.41699 6.26233 2.40243 6.29927 2.37886C6.33621 2.35529 6.36709 2.32338 6.38943 2.28568C7.0303 1.2092 8.15687 0.566396 9.40341 0.566396C11.3382 0.566396 12.9123 2.14029 12.9123 4.07511C12.9123 4.19929 12.9043 4.32935 12.888 4.47281C12.8786 4.55587 12.9174 4.63774 12.9753 4.69798C13.0331 4.75821 13.1246 4.78761 13.2088 4.78297C13.2501 4.78009 13.2912 4.77684 13.3333 4.77684C14.4942 4.77684 15.4385 5.72112 15.4385 6.8821C15.4385 8.04308 14.4942 8.98732 13.3333 8.98732H10.1053C10.0309 8.98732 9.95947 9.0169 9.90682 9.06956C9.85417 9.12221 9.82459 9.19362 9.82459 9.26808C9.82459 9.34254 9.85417 9.41395 9.90682 9.46661C9.95947 9.51926 10.0309 9.54884 10.1053 9.54884H13.3333C14.8037 9.54884 16 8.35254 16 6.88206C16 5.45772 14.8775 4.29082 13.4708 4.21903C13.4727 4.17108 13.4736 4.1231 13.4736 4.07511C13.4736 1.83095 11.6477 0.00488281 9.40341 0.00488281C8.0947 0.00488281 6.85777 0.64962 6.09774 1.7076C5.64749 1.33576 5.07841 1.12774 4.49124 1.12774C3.09815 1.12774 1.96484 2.26109 1.96484 3.65414C1.96484 3.86952 1.99198 4.08186 2.04581 4.28823C0.858142 4.56907 0 5.62959 0 6.88206C0 8.35254 1.1963 9.54884 2.66661 9.54884Z" fill="#DFE1E6"/>
<path d="M7.29819 13.4785C7.37263 13.4785 7.44402 13.449 7.49667 13.3964C7.54932 13.3438 7.57892 13.2724 7.57895 13.1979V5.89975H9.86439C9.99001 6.38257 10.4258 6.74169 10.9473 6.74169C11.5665 6.74169 12.0702 6.23799 12.0702 5.619C12.0702 5 11.5665 4.49609 10.9473 4.49609C10.4258 4.49609 9.99001 4.85539 9.86439 5.3382H7.29819C7.22375 5.33823 7.15237 5.36783 7.09975 5.42049C7.04713 5.47315 7.01758 5.54455 7.0176 5.619V12.9172H1.4035V12.0352C1.88631 11.9098 2.2456 11.4738 2.2456 10.9523C2.2456 10.3331 1.7419 9.82944 1.1229 9.82944C0.503701 9.82944 0 10.3331 0 10.9523C0 11.4738 0.359293 11.9098 0.842105 12.0352V13.1979C0.842105 13.2348 0.84937 13.2713 0.863484 13.3054C0.877598 13.3394 0.898284 13.3704 0.924361 13.3964C0.950439 13.4225 0.981395 13.4431 1.01546 13.4572C1.04953 13.4713 1.08604 13.4786 1.1229 13.4785H7.29819ZM10.9473 5.05761C11.257 5.05761 11.5088 5.30929 11.5088 5.619C11.5088 5.9287 11.257 6.18035 10.9473 6.18035C10.6378 6.18035 10.3859 5.92866 10.3859 5.619C10.3859 5.30933 10.6378 5.05761 10.9473 5.05761ZM0.561349 10.9523C0.561349 10.6427 0.813199 10.391 1.1229 10.391C1.4324 10.391 1.68425 10.6427 1.68425 10.9523C1.68425 11.2618 1.4324 11.5137 1.1229 11.5137C0.813199 11.5137 0.561349 11.2618 0.561349 10.9523Z" fill="#DFE1E6"/>
<path d="M4.21059 10.9523C4.17374 10.9523 4.13724 10.9596 4.10319 10.9737C4.06915 10.9878 4.03821 11.0084 4.01215 11.0345C3.9861 11.0605 3.96543 11.0915 3.95133 11.1255C3.93724 11.1596 3.92999 11.1961 3.93 11.2329C3.92997 11.2698 3.93722 11.3063 3.95131 11.3404C3.9654 11.3744 3.98606 11.4054 4.01212 11.4315C4.03818 11.4575 4.06912 11.4782 4.10317 11.4923C4.13723 11.5064 4.17373 11.5137 4.21059 11.5137H6.17564C6.2125 11.5137 6.249 11.5064 6.28305 11.4923C6.31711 11.4782 6.34805 11.4575 6.3741 11.4315C6.40016 11.4054 6.42083 11.3744 6.43492 11.3404C6.44901 11.3063 6.45625 11.2698 6.45623 11.2329V7.8646C6.45626 7.79892 6.43324 7.73531 6.39118 7.68487L5.16145 6.20925C5.26877 6.03725 5.33349 5.83614 5.33349 5.61879C5.33349 4.99979 4.82979 4.49609 4.21059 4.49609C3.59159 4.49609 3.08789 4.99979 3.08789 5.61883C3.08789 6.23799 3.59159 6.74169 4.21059 6.74169C4.40833 6.74169 4.59143 6.68598 4.75302 6.59589L5.89488 7.96612V10.9523H4.21059ZM3.64924 5.61904C3.64924 5.30933 3.90109 5.05765 4.21059 5.05765C4.52029 5.05765 4.77214 5.30933 4.77214 5.61904C4.77214 5.72759 4.73966 5.828 4.6862 5.9141C4.65197 5.92482 4.62012 5.94205 4.59241 5.96484C4.55097 5.99922 4.52687 6.04433 4.51079 6.09174C4.42391 6.14712 4.32124 6.18039 4.21063 6.18039C3.90109 6.18039 3.64924 5.9287 3.64924 5.61904ZM15.158 10.9523H9.26338V8.66694C9.7462 8.54132 10.1055 8.10555 10.1055 7.58388C10.1055 6.96484 9.60166 6.46114 8.98263 6.46114C8.36359 6.46114 7.85989 6.96484 7.85989 7.58388C7.85989 8.10555 8.21906 8.54132 8.70187 8.66694V11.233C8.70187 11.3074 8.73145 11.3788 8.7841 11.4315C8.83675 11.4842 8.90817 11.5137 8.98263 11.5137H15.1581C15.195 11.5137 15.2315 11.5065 15.2655 11.4924C15.2996 11.4782 15.3305 11.4576 15.3566 11.4315C15.3826 11.4054 15.4033 11.3745 15.4174 11.3404C15.4315 11.3063 15.4387 11.2698 15.4387 11.233C15.4387 11.1961 15.4315 11.1596 15.4174 11.1256C15.4033 11.0915 15.3826 11.0606 15.3565 11.0346C15.3305 11.0085 15.2996 10.9878 15.2655 10.9737C15.2315 10.9596 15.195 10.9524 15.1581 10.9524L15.158 10.9523ZM8.4212 7.58388C8.4212 7.27438 8.67292 7.02253 8.98259 7.02253C9.29225 7.02253 9.54393 7.27438 9.54393 7.58388C9.54393 7.89354 9.29229 8.14539 8.98259 8.14539C8.67288 8.14539 8.4212 7.89354 8.4212 7.58388ZM14.8773 14.3207H12.7946L11.7526 12.4973C11.7281 12.4544 11.6926 12.4186 11.6498 12.3938C11.6071 12.3689 11.5585 12.3558 11.509 12.3558H8.98259C8.94532 12.3552 8.90831 12.362 8.87369 12.3758C8.83908 12.3896 8.80757 12.4102 8.78099 12.4363C8.75441 12.4625 8.73331 12.4936 8.7189 12.528C8.70449 12.5623 8.69707 12.5992 8.69707 12.6365C8.69707 12.6738 8.70449 12.7107 8.7189 12.745C8.73331 12.7794 8.75441 12.8106 8.78099 12.8367C8.80757 12.8628 8.83908 12.8834 8.87369 12.8972C8.90831 12.911 8.94532 12.9178 8.98259 12.9172H11.3461L12.388 14.7407C12.4125 14.7837 12.448 14.8194 12.4908 14.8442C12.5336 14.8691 12.5822 14.8822 12.6317 14.8822H14.8773C15.0323 14.8822 15.1581 14.7564 15.1581 14.6014C15.1581 14.4465 15.0323 14.3207 14.8773 14.3207ZM11.2282 14.3207H10.3462C10.2206 13.8379 9.78489 13.4786 9.26334 13.4786C8.74167 13.4786 8.3059 13.8379 8.18028 14.3207H1.40364C1.24862 14.3207 1.12305 14.4464 1.12305 14.6014C1.12305 14.7565 1.24862 14.8822 1.40364 14.8822H8.18024C8.30586 15.365 8.74163 15.7242 9.2633 15.7242C9.78485 15.7242 10.2206 15.365 10.3462 14.8822H11.2282C11.3832 14.8822 11.5089 14.7564 11.5089 14.6014C11.5089 14.4465 11.3831 14.3207 11.2281 14.3207H11.2282ZM9.26334 15.1628C8.95368 15.1628 8.70183 14.9111 8.70183 14.6014C8.70183 14.2917 8.95368 14.0401 9.26334 14.0401C9.57288 14.0401 9.82473 14.2917 9.82473 14.6014C9.82473 14.9111 9.57288 15.1628 9.26334 15.1628Z" fill="#DFE1E6"/>
</g>
<defs>
<clipPath id="clip0_7922_497">
<rect width="16" height="16" fill="white"/>
</clipPath>
</defs>
</svg>
